<?xml version="1.0" encoding="utf-8"?>
<!-- Generator: Adobe Illustrator 16.0.0, SVG Export Plug-In . SVG Version: 6.00 Build 0)  -->
<!DOCTYPE svg PUBLIC "-//W3C//DTD SVG 1.1//EN" "http://www.w3.org/Graphics/SVG/1.1/DTD/svg11.dtd">
<svg version="1.1" id="COOKIE" xmlns="http://www.w3.org/2000/svg" xmlns:xlink="http://www.w3.org/1999/xlink" x="0px" y="0px"
	 width="64px" height="64px" viewBox="0 0 64 64" enable-background="new 0 0 64 64" xml:space="preserve">
<g id="COOKIE_1_">
	<path fill="#E09851" d="M32,16c-0.396,0-0.801,0.019-1.233,0.058c0.137,0.588,0.206,1.189,0.206,1.799
		c0.001,2.135-0.83,4.144-2.342,5.656c-1.078,1.078-2.4,1.812-3.86,2.144c-0.898,3.892-4.672,6.653-8.769,6.14
		C16.001,31.863,16,31.932,16,32c0,8.822,7.178,16,16,16s16-7.178,16-16S40.822,16,32,16z"/>
	<circle fill="#443017" cx="35.709" cy="22.973" r="2"/>
	<circle fill="#443017" cx="41.875" cy="29.417" r="2"/>
	<circle fill="#443017" cx="31.709" cy="31.417" r="2"/>
	<circle fill="#443017" cx="24.001" cy="37.25" r="2"/>
	<circle fill="#443017" cx="32" cy="42.292" r="2"/>
	<circle fill="#443017" cx="38.875" cy="37.25" r="2"/>
	<path fill="#443017" d="M32,50c-9.925,0-18-8.075-18-18c0-0.505,0.034-1.001,0.074-1.494c0.023-0.298,0.181-0.569,0.427-0.74
		c0.245-0.17,0.552-0.221,0.842-0.142c3.594,1.016,7.107-1.47,7.578-4.963c0.061-0.446,0.412-0.798,0.858-0.857
		c1.308-0.175,2.496-0.765,3.438-1.705c1.133-1.134,1.757-2.641,1.756-4.241c0-0.78-0.149-1.542-0.447-2.266
		c-0.117-0.284-0.097-0.605,0.055-0.873c0.152-0.267,0.417-0.45,0.721-0.496C30.309,14.071,31.166,14,32,14c9.925,0,18,8.075,18,18
		S41.925,50,32,50z M16.002,31.795C16.001,31.863,16,31.932,16,32c0,8.822,7.178,16,16,16s16-7.178,16-16s-7.178-16-16-16
		c-0.396,0-0.801,0.019-1.233,0.058c0.137,0.588,0.206,1.189,0.206,1.799c0.001,2.135-0.83,4.144-2.342,5.656
		c-1.078,1.078-2.4,1.812-3.86,2.144C23.872,29.547,20.099,32.309,16.002,31.795z"/>
</g>
</svg>
